<?xml version="1.0" encoding="UTF-8" standalone="no"?>
<!DOCTYPE svg PUBLIC "-//W3C//DTD SVG 1.1//EN" "http://www.w3.org/Graphics/SVG/1.1/DTD/svg11.dtd">
<svg width="100%" height="100%" viewBox="0 0 146 146" version="1.1" xmlns="http://www.w3.org/2000/svg" xmlns:xlink="http://www.w3.org/1999/xlink" xml:space="preserve" xmlns:serif="http://www.serif.com/" style="fill-rule:evenodd;clip-rule:evenodd;">
    <path id="path12" d="M146,134L12,0L54,0L146,92L146,134Z" style="fill-rule:nonzero;"/>
    <g transform="matrix(0.707107,0.707107,-0.707107,0.707107,48.1795,-24.2837)">
        <path d="M20.152,31.061L21.48,30.256C21.689,31.537 22.457,32.178 23.785,32.178C24.431,32.178 24.959,32.002 25.371,31.651C25.782,31.299 25.988,30.847 25.988,30.295C25.988,29.54 25.532,28.79 24.621,28.045L23.676,27.279C22.915,26.654 22.407,26.161 22.152,25.799C21.897,25.437 21.769,25.029 21.769,24.576C21.769,23.722 22.111,23.016 22.793,22.459C23.475,21.902 24.337,21.623 25.379,21.623C26.207,21.623 26.991,21.821 27.73,22.217L27.277,23.256L27.074,23.717C26.959,23.988 26.824,24.123 26.668,24.123C26.6,24.123 26.53,24.097 26.457,24.045C26.545,23.774 26.59,23.558 26.59,23.397C26.59,23.063 26.406,22.785 26.039,22.561C25.672,22.337 25.217,22.225 24.676,22.225C23.446,22.225 22.832,22.733 22.832,23.748C22.832,24.113 22.969,24.463 23.242,24.799C23.515,25.135 24.084,25.654 24.949,26.358L25.707,26.983C26.67,27.764 27.152,28.584 27.152,29.444C27.152,30.391 26.752,31.18 25.953,31.811C25.153,32.441 24.155,32.756 22.957,32.756C21.499,32.756 20.564,32.191 20.152,31.061Z" style="fill:rgb(255,249,249);fill-rule:nonzero;"/>
        <path d="M31.168,26.076L30.777,29.529C30.709,30.149 30.676,30.608 30.676,30.904C30.676,31.493 30.876,31.787 31.277,31.787C31.709,31.787 32.157,31.433 32.621,30.725C32.699,30.824 32.738,30.912 32.738,30.99C32.738,31.282 32.482,31.631 31.969,32.037C31.456,32.444 31.014,32.647 30.644,32.647C29.905,32.647 29.535,32.173 29.535,31.225C29.535,30.876 29.579,30.311 29.668,29.529L30.051,26.076L28.402,26.076L29.316,25.17L30.152,25.17L30.316,23.748L31.465,23.365L31.269,25.17L34.582,25.17L33.668,26.076L31.168,26.076Z" style="fill:rgb(255,249,249);fill-rule:nonzero;"/>
        <path d="M39.238,29.342C38.65,30.311 38.002,31.104 37.297,31.721C36.591,32.338 35.978,32.647 35.457,32.647C34.743,32.647 34.387,32.071 34.387,30.92C34.387,29.337 34.906,27.966 35.945,26.807C36.984,25.648 38.215,25.069 39.637,25.069C40.178,25.069 40.639,25.136 41.019,25.272C40.993,25.365 40.978,25.423 40.973,25.444L40.879,25.858C40.816,26.144 40.782,26.311 40.777,26.358L40.277,29.811L40.207,30.311C40.139,30.805 40.105,31.136 40.105,31.303C40.105,31.527 40.17,31.639 40.301,31.639C40.738,31.639 41.186,31.149 41.644,30.17C41.785,30.253 41.855,30.337 41.855,30.42C41.855,30.602 41.631,30.97 41.183,31.522C40.574,32.272 40.009,32.647 39.488,32.647C39.108,32.647 38.918,32.391 38.918,31.881C38.918,31.725 38.936,31.509 38.973,31.233L39.051,30.608L39.152,29.92L39.238,29.342ZM39.683,26.24C39.209,25.975 38.73,25.842 38.246,25.842C37.517,25.842 36.905,26.287 36.41,27.178C35.915,28.069 35.668,29.173 35.668,30.49C35.668,31.167 35.868,31.506 36.269,31.506C36.733,31.506 37.293,31.152 37.949,30.444C38.834,29.49 39.371,28.371 39.558,27.084L39.683,26.24Z" style="fill:rgb(255,249,249);fill-rule:nonzero;"/>
        <path d="M45.762,30.147C45.913,30.22 45.988,30.313 45.988,30.428C45.988,30.803 45.708,31.266 45.148,31.819C44.588,32.371 44.118,32.647 43.738,32.647C43.306,32.647 43.09,32.334 43.09,31.709C43.09,31.329 43.113,30.941 43.16,30.545L43.246,29.85L43.848,24.412C44.035,22.756 44.604,21.373 45.555,20.264C46.505,19.154 47.6,18.6 48.84,18.6C49.142,18.6 49.397,18.626 49.605,18.678L48.496,19.811C48.251,19.727 47.965,19.686 47.637,19.686C46.855,19.686 46.271,19.96 45.883,20.51C45.495,21.059 45.228,21.99 45.082,23.303L44.355,29.85C44.298,30.355 44.269,30.717 44.269,30.936C44.269,31.404 44.35,31.639 44.512,31.639C44.704,31.639 44.931,31.484 45.191,31.174C45.452,30.864 45.642,30.522 45.762,30.147Z" style="fill:rgb(255,249,249);fill-rule:nonzero;"/>
        <path d="M48.965,27.529C49.355,26.8 49.846,26.191 50.437,25.701C51.028,25.212 51.571,24.967 52.066,24.967C52.733,24.967 53.066,25.311 53.066,25.998C53.066,26.654 52.789,27.255 52.234,27.799C51.68,28.343 50.946,28.735 50.035,28.975C51.025,30.751 51.762,31.639 52.246,31.639C52.595,31.639 52.962,31.334 53.348,30.725C53.467,30.813 53.527,30.899 53.527,30.983C53.527,31.227 53.288,31.563 52.808,31.99C52.329,32.417 51.944,32.636 51.652,32.647C51.131,32.673 50.246,31.566 48.996,29.326L48.801,28.975L48.449,32.17L47.285,32.647L47.308,32.428L47.371,31.85L47.433,31.303L48.199,24.459C48.376,22.839 48.973,21.459 49.988,20.319C51.004,19.178 52.142,18.608 53.402,18.608C53.663,18.608 53.913,18.636 54.152,18.694L53.004,19.819C52.707,19.73 52.426,19.686 52.16,19.686C50.613,19.686 49.704,20.894 49.433,23.311L48.965,27.529ZM48.824,28.74C49.663,28.74 50.363,28.552 50.926,28.174C51.488,27.796 51.769,27.329 51.769,26.772C51.769,26.209 51.571,25.928 51.176,25.928C50.811,25.928 50.406,26.195 49.961,26.729C49.515,27.263 49.137,27.933 48.824,28.74Z" style="fill:rgb(255,249,249);fill-rule:nonzero;"/>
        <path d="M64.801,32.17L63.644,32.647L63.668,32.428L63.73,31.85L63.785,31.303L64.176,27.795L64.23,27.397C64.251,27.188 64.262,26.985 64.262,26.787C64.262,26.282 64.108,26.029 63.801,26.029C63.321,26.029 62.763,26.519 62.125,27.498C61.487,28.477 61.118,29.41 61.019,30.295L60.816,32.17L59.652,32.647L59.676,32.428L59.738,31.85L59.801,31.303L60.199,27.678L60.246,27.264C60.282,26.941 60.301,26.68 60.301,26.483C60.301,26.149 60.217,25.983 60.051,25.983C59.66,25.983 59.238,26.425 58.785,27.311C58.665,27.212 58.605,27.126 58.605,27.053C58.605,26.74 58.89,26.315 59.461,25.776C60.031,25.236 60.483,24.967 60.816,24.967C61.264,24.967 61.488,25.253 61.488,25.826C61.488,25.972 61.475,26.167 61.449,26.412L61.387,27.045L61.324,27.576L61.262,28.131L61.48,27.787C62.647,25.907 63.733,24.967 64.738,24.967C65.223,24.967 65.465,25.316 65.465,26.014C65.465,26.134 65.444,26.386 65.402,26.772L65.324,27.49L65.215,28.467C65.699,27.462 66.273,26.627 66.937,25.963C67.601,25.299 68.194,24.967 68.715,24.967C69.23,24.967 69.488,25.3 69.488,25.967C69.488,26.253 69.459,26.595 69.402,26.99L68.988,29.889C68.9,30.488 68.855,30.951 68.855,31.279C68.855,31.555 68.931,31.694 69.082,31.694C69.259,31.694 69.482,31.545 69.75,31.248C70.018,30.951 70.233,30.615 70.394,30.24C70.535,30.334 70.605,30.42 70.605,30.498C70.605,30.826 70.315,31.266 69.734,31.819C69.153,32.371 68.691,32.647 68.348,32.647C67.905,32.647 67.683,32.35 67.683,31.756C67.683,31.381 67.741,30.8 67.855,30.014L68.129,28.131C68.139,28.063 68.157,27.915 68.183,27.686C68.194,27.592 68.212,27.433 68.238,27.209C68.264,26.985 68.277,26.813 68.277,26.694C68.277,26.251 68.131,26.029 67.84,26.029C67.35,26.029 66.781,26.519 66.133,27.498C65.484,28.477 65.111,29.41 65.012,30.295L64.801,32.17Z" style="fill:rgb(255,249,249);fill-rule:nonzero;"/>
        <path d="M76.074,29.959C76.204,30.048 76.269,30.152 76.269,30.272C76.269,30.433 76.103,30.709 75.769,31.1C74.879,32.131 73.999,32.647 73.129,32.647C72.598,32.647 72.16,32.436 71.816,32.014C71.473,31.592 71.301,31.053 71.301,30.397C71.301,29.209 71.75,28.007 72.648,26.791C73.547,25.575 74.436,24.967 75.316,24.967C75.952,24.967 76.269,25.308 76.269,25.99C76.269,26.756 75.898,27.503 75.156,28.233C74.414,28.962 73.509,29.47 72.441,29.756C72.545,31.011 73.04,31.639 73.926,31.639C74.801,31.639 75.517,31.079 76.074,29.959ZM72.473,28.803C72.624,28.855 72.762,28.881 72.887,28.881C73.532,28.881 74.098,28.683 74.582,28.287C75.066,27.891 75.308,27.428 75.308,26.897C75.308,26.287 74.999,25.983 74.379,25.983C73.931,25.983 73.526,26.25 73.164,26.783C72.802,27.317 72.571,27.99 72.473,28.803Z" style="fill:rgb(255,249,249);fill-rule:nonzero;"/>
        <path d="M83.449,32.647C82.277,32.647 81.691,31.871 81.691,30.319C81.691,29.069 82.15,27.864 83.066,26.705C83.983,25.546 84.933,24.967 85.918,24.967C87.105,24.967 87.699,25.743 87.699,27.295C87.699,28.55 87.241,29.756 86.324,30.912C85.407,32.069 84.449,32.647 83.449,32.647ZM84.394,31.772C84.993,31.772 85.495,31.438 85.898,30.772C86.302,30.105 86.504,29.274 86.504,28.279C86.504,26.654 85.999,25.842 84.988,25.842C84.394,25.842 83.896,26.177 83.492,26.846C83.088,27.515 82.887,28.345 82.887,29.334C82.887,30.959 83.389,31.772 84.394,31.772Z" style="fill:rgb(255,249,249);fill-rule:nonzero;"/>
        <path d="M90.683,32.17L89.519,32.647L89.543,32.428L89.605,31.85L89.668,31.303L90.074,27.678L90.121,27.264C90.152,26.941 90.168,26.68 90.168,26.483C90.168,26.149 90.084,25.983 89.918,25.983C89.527,25.983 89.108,26.425 88.66,27.311C88.54,27.212 88.48,27.126 88.48,27.053C88.48,26.74 88.765,26.315 89.336,25.776C89.906,25.236 90.355,24.967 90.683,24.967C91.131,24.967 91.355,25.253 91.355,25.826C91.355,25.972 91.342,26.167 91.316,26.412L91.254,27.045L91.191,27.576L91.129,28.131C91.743,27.214 92.417,26.458 93.148,25.861C93.88,25.265 94.504,24.967 95.019,24.967C95.525,24.967 95.777,25.319 95.777,26.022C95.777,26.235 95.749,26.555 95.691,26.983L95.269,29.897C95.186,30.48 95.144,30.941 95.144,31.279C95.144,31.55 95.217,31.686 95.363,31.686C95.723,31.686 96.165,31.207 96.691,30.248C96.816,30.326 96.879,30.407 96.879,30.49C96.879,30.829 96.588,31.273 96.008,31.822C95.427,32.372 94.954,32.647 94.59,32.647C94.183,32.647 93.98,32.355 93.98,31.772C93.98,31.345 94.035,30.753 94.144,29.998L94.418,28.108C94.506,27.493 94.551,27.006 94.551,26.647C94.551,26.235 94.407,26.029 94.121,26.029C93.454,26.029 92.778,26.481 92.094,27.385C91.409,28.289 91.009,29.259 90.894,30.295L90.683,32.17Z" style="fill:rgb(255,249,249);fill-rule:nonzero;"/>
        <path d="M109.387,31.537C108.209,32.355 107.051,32.764 105.91,32.764C104.832,32.764 103.963,32.365 103.305,31.569C102.646,30.772 102.316,29.72 102.316,28.412C102.316,26.48 102.926,24.865 104.144,23.569C105.363,22.272 106.884,21.623 108.707,21.623C109.629,21.623 110.584,21.798 111.574,22.147L111.051,23.295L110.902,23.631C110.777,23.897 110.624,24.029 110.441,24.029C110.405,24.029 110.35,24.022 110.277,24.006C110.35,23.845 110.387,23.712 110.387,23.608C110.387,23.259 110.153,22.954 109.687,22.694C109.221,22.433 108.678,22.303 108.058,22.303C106.762,22.303 105.723,22.812 104.941,23.83C104.16,24.848 103.769,26.199 103.769,27.881C103.769,29.115 104.043,30.079 104.59,30.772C105.137,31.464 105.897,31.811 106.871,31.811C107.767,31.811 108.634,31.457 109.473,30.748L109.793,27.928L108.465,27.928C107.564,27.928 106.842,28.016 106.301,28.194C106.561,27.662 106.807,27.329 107.039,27.194C107.271,27.058 107.707,26.99 108.348,26.99L109.137,26.983L111.215,26.983L111.137,27.303L111.012,27.795C110.944,28.087 110.897,28.339 110.871,28.553L110.527,31.694C110.407,32.751 110.254,33.541 110.066,34.065C109.879,34.588 109.571,35.071 109.144,35.514C108.29,36.41 107.269,36.858 106.082,36.858C104.988,36.858 104.137,36.483 103.527,35.733L104.691,34.811C105.17,35.733 105.907,36.194 106.902,36.194C107.652,36.194 108.193,35.958 108.523,35.486C108.854,35.015 109.092,34.149 109.238,32.889L109.387,31.537Z" style="fill:rgb(255,249,249);fill-rule:nonzero;"/>
        <path d="M116.433,30.17C116.574,30.253 116.644,30.334 116.644,30.412C116.644,30.6 116.418,30.97 115.965,31.522C115.355,32.272 114.79,32.647 114.269,32.647C113.889,32.647 113.699,32.394 113.699,31.889C113.699,31.675 113.777,31.019 113.933,29.92L114.238,27.795L114.316,27.256L114.379,26.826C114.405,26.644 114.418,26.49 114.418,26.365C114.418,26.105 114.345,25.975 114.199,25.975C113.793,25.975 113.355,26.423 112.887,27.319C112.788,27.23 112.738,27.141 112.738,27.053C112.738,26.735 113.031,26.308 113.617,25.772C114.203,25.235 114.67,24.967 115.019,24.967C115.41,24.967 115.605,25.238 115.605,25.779C115.605,25.884 115.584,26.097 115.543,26.42L115.473,26.944C115.467,26.985 115.439,27.196 115.387,27.576L115.066,29.811L114.988,30.311C114.92,30.805 114.887,31.136 114.887,31.303C114.887,31.527 114.952,31.639 115.082,31.639C115.519,31.639 115.97,31.149 116.433,30.17ZM114.863,23.959L115.519,22.342C116.103,22.102 116.582,21.772 116.957,21.35C117.009,21.423 117.035,21.498 117.035,21.576C117.035,22.274 116.311,23.069 114.863,23.959Z" style="fill:rgb(255,249,249);fill-rule:nonzero;"/>
        <path d="M119.832,26.076L119.441,29.529C119.374,30.149 119.34,30.608 119.34,30.904C119.34,31.493 119.54,31.787 119.941,31.787C120.374,31.787 120.821,31.433 121.285,30.725C121.363,30.824 121.402,30.912 121.402,30.99C121.402,31.282 121.146,31.631 120.633,32.037C120.12,32.444 119.678,32.647 119.308,32.647C118.569,32.647 118.199,32.173 118.199,31.225C118.199,30.876 118.243,30.311 118.332,29.529L118.715,26.076L117.066,26.076L117.98,25.17L118.816,25.17L118.98,23.748L120.129,23.365L119.933,25.17L123.246,25.17L122.332,26.076L119.832,26.076Z" style="fill:rgb(255,249,249);fill-rule:nonzero;"/>
        <path d="M129.176,21.936C128.941,23.128 128.801,23.93 128.754,24.342L128.512,26.506L132.871,26.506L132.902,26.225C133.241,23.199 133.84,21.141 134.699,20.053C135.751,18.72 136.918,18.053 138.199,18.053C138.678,18.053 139.124,18.136 139.535,18.303L138.379,19.436C137.941,19.139 137.506,18.99 137.074,18.99C136.194,18.99 135.582,19.427 135.238,20.299C134.894,21.171 134.553,23.147 134.215,26.225L134.098,27.287C133.952,28.657 133.879,29.717 133.879,30.467C133.879,30.91 134.069,31.131 134.449,31.131C134.73,31.131 135.079,31.011 135.496,30.772C135.517,30.865 135.527,30.93 135.527,30.967C135.527,31.123 135.389,31.264 135.113,31.389L134.66,31.6L132.363,32.647C132.363,31.683 132.488,30.045 132.738,27.733L132.769,27.451L128.41,27.451L128.332,28.162L128.23,29.029C128.142,29.769 127.982,30.303 127.75,30.631C127.518,30.959 127.074,31.279 126.418,31.592L128.262,31.709L127.324,32.615L123.941,32.444L124.941,31.475L125.793,31.569C126.204,31.303 126.488,30.971 126.644,30.572C126.801,30.174 126.936,29.433 127.051,28.35L127.652,22.881L127.41,22.881C125.243,22.881 124.16,23.597 124.16,25.029C124.16,25.477 124.282,25.928 124.527,26.381L123.254,27.6C123.134,27.194 123.074,26.79 123.074,26.389C123.074,25.045 123.574,23.967 124.574,23.154C125.574,22.342 126.902,21.936 128.558,21.936L129.176,21.936Z" style="fill:rgb(255,249,249);fill-rule:nonzero;"/>
        <path d="M142.246,29.373C141.652,30.285 140.983,31.058 140.238,31.694C139.493,32.329 138.887,32.647 138.418,32.647C137.902,32.647 137.644,32.303 137.644,31.615C137.644,31.36 137.678,30.941 137.746,30.358L138.027,27.795C138.032,27.759 138.045,27.608 138.066,27.342L138.113,26.834C138.129,26.683 138.137,26.548 138.137,26.428C138.137,26.126 138.051,25.975 137.879,25.975C137.483,25.975 137.056,26.42 136.598,27.311C136.499,27.233 136.449,27.149 136.449,27.061C136.449,26.738 136.737,26.308 137.312,25.772C137.888,25.235 138.345,24.967 138.683,24.967C139.116,24.967 139.332,25.264 139.332,25.858C139.332,25.998 139.321,26.162 139.301,26.35L139.23,26.951L139.16,27.608L138.91,29.842C138.868,30.222 138.848,30.608 138.848,30.998C138.848,31.358 138.98,31.537 139.246,31.537C139.834,31.537 140.5,31.053 141.242,30.084C141.984,29.115 142.423,28.157 142.558,27.209L142.824,25.358L144.09,24.928C143.944,25.532 143.834,26.071 143.762,26.545L143.293,29.811C143.267,30.009 143.246,30.175 143.23,30.311L143.176,30.74C143.144,31.006 143.129,31.194 143.129,31.303C143.129,31.527 143.191,31.639 143.316,31.639C143.759,31.639 144.209,31.149 144.668,30.17C144.808,30.253 144.879,30.337 144.879,30.42C144.879,30.602 144.652,30.97 144.199,31.522C143.59,32.272 143.025,32.647 142.504,32.647C142.124,32.647 141.933,32.391 141.933,31.881C141.933,31.72 141.952,31.503 141.988,31.233L142.074,30.608C142.121,30.269 142.152,30.04 142.168,29.92L142.246,29.373Z" style="fill:rgb(255,249,249);fill-rule:nonzero;"/>
        <path d="M147.566,28.279C148.129,27.3 148.751,26.503 149.433,25.889C150.116,25.274 150.717,24.967 151.238,24.967C151.988,24.967 152.363,25.605 152.363,26.881C152.363,28.444 151.867,29.778 150.875,30.885C149.883,31.992 148.686,32.545 147.285,32.545C147.108,32.545 146.952,32.537 146.816,32.522L146.183,32.459C146.147,32.459 146.048,32.454 145.887,32.444C146.001,32.048 146.082,31.634 146.129,31.201L146.879,24.459C147.061,22.839 147.66,21.459 148.676,20.319C149.691,19.178 150.827,18.608 152.082,18.608C152.342,18.608 152.592,18.636 152.832,18.694L151.683,19.819C151.387,19.73 151.108,19.686 150.848,19.686C149.295,19.686 148.387,20.894 148.121,23.311L147.566,28.279ZM147.223,31.373C147.707,31.639 148.191,31.772 148.676,31.772C149.394,31.772 149.978,31.356 150.426,30.526C150.874,29.695 151.098,28.613 151.098,27.279C151.098,26.503 150.887,26.115 150.465,26.115C149.996,26.115 149.446,26.467 148.816,27.17C147.962,28.123 147.462,29.243 147.316,30.529L147.223,31.373Z" style="fill:rgb(255,249,249);fill-rule:nonzero;"/>
    </g>
    <path id="path44" d="M52,0L146,94M14,0L146,132" style="fill:none;fill-rule:nonzero;stroke:white;stroke-opacity:0.95;stroke-width:1px;stroke-dasharray:2,1;"/>
</svg>
